<svg class="icon" style="width: 1em; height: 1em;vertical-align: middle;fill: currentColor;overflow: hidden;" viewBox="0 0 1024 1024" version="1.1" xmlns="http://www.w3.org/2000/svg" p-id="24243"><path d="M810.688 651.456c23.04-71.424 190.656-177.472 167.424-248.832-23.104-71.296-221.056-58.56-281.664-102.592C635.904 256.064 586.944 64 512 64 437.12 64 388.096 256.064 327.552 300.032 266.88 344.128 68.928 331.392 45.824 402.624c-23.168 71.296 144.32 177.344 167.488 248.832 23.04 71.232-50.048 255.168 10.624 299.328 60.672 43.968 213.12-82.688 288-82.688 74.944 0 227.392 126.592 288.064 82.688C860.48 906.688 787.456 722.56 810.688 651.456zM768.512 902.656C714.368 941.952 578.688 829.056 512 829.056c-66.688 0-202.496 112.896-256.448 73.536-54.08-39.104 11.008-203.072-9.6-266.432C225.344 572.608 76.16 478.08 96.832 414.592 117.44 351.04 293.632 362.432 347.648 323.2 401.6 284.032 445.312 113.024 512 113.024c66.816 0 110.4 171.008 164.224 210.176 54.144 39.232 230.272 27.84 250.88 91.392 20.672 63.488-128.576 158.016-149.184 221.568C757.312 699.584 822.464 863.552 768.512 902.656z" p-id="24244"></path></svg>