<svg class="icon" style="width: 1em; height: 1em;vertical-align: middle;fill: currentColor;overflow: hidden;" viewBox="0 0 1024 1024" version="1.1" xmlns="http://www.w3.org/2000/svg" p-id="26816"><path d="M512 829.779L207.726 1013.66c-9.442 5.706-15.592 1.515-13.721-9.37L256.8 638.915 14.195 398.086c-7.847-7.79-5.245-14.091 5.795-14.091h364.391L505.693 18.977c3.485-10.487 9.147-10.48 12.65 0l122.004 365.018h363.65c11.05 0 13.672 6.33 5.861 14.138l-241.893 241.84 60.657 364.289c1.816 10.903-4.37 15.09-13.814 9.356L512 829.778z m-0.66-73.19l214.687 131.266c9.424 5.762 15.1 1.691 12.677-9.084l-53.436-237.696 178.024-178.718c7.792-7.822 5.162-14.163-5.894-14.163H595.337L513.5 177.91l-84.765 270.284H165.282c-11.047 0-13.726 6.376-5.974 14.251l175.844 178.63-47.183 237.59c-2.152 10.838 3.697 14.889 13.069 9.046L511.34 756.588z" fill="#55CEBA" p-id="26817"></path></svg>