<svg class="icon" style="width: 1em; height: 1em;vertical-align: middle;fill: currentColor;overflow: hidden;" viewBox="0 0 1024 1024" version="1.1" xmlns="http://www.w3.org/2000/svg" p-id="2667"><path d="M688.3057562864198 583.1409192032921c-16.938314096021948 0-30.783544748422496 7.806353452949245-41.38840226941015 23.419060358847737-10.75214720877915 15.61270690589849-16.054575969272975 38.73718788916324-16.054575969272975 69.07886357421124 0 24.302798485596707 4.56598032153635 44.92335477640603 13.697940964609051 61.56708949684499 9.1319606430727 16.791024408230452 24.00821911001372 25.039246924554185 44.628775400823045 25.039246924554185 19.589528476268864 0 33.582048816460905-9.426540018655693 42.41943008395062-28.279620055967072 8.690091579698217-18.853080037311386 13.108782213443073-40.50466414266117 13.108782213443073-64.95475231604938 0-25.922985051303154-5.007849384910837-46.690831029903975-15.02354815473251-62.45082762359396-10.310278145404663-15.465417218106994-24.00821911001372-23.419060358847737-41.38840226941015-23.419060358847737z" fill="#4a90e2" p-id="2668"></path><path d="M926.4731814452675 127.86849423978049H91.78252073086418c-35.05494569437586 0-63.62914512592593 28.57419943155006-63.62914512592593 63.62914512592593v640.5628522052125c0 35.05494569437586 28.57419943155006 63.62914512592593 63.62914512592593 63.62914512592593h834.8379504021945c35.05494569437586 0 63.62914512592593-28.57419943155006 63.62914512592593-63.62914512592593V191.49763936570645c-0.1472896877914952-34.90765600658436-28.721489119341566-63.62914512592593-63.776434813717415-63.62914512592593zM441.00637048449937 741.7719129547326c-29.899806621673523 45.807092903155-77.47437577832648 68.78428419862826-142.72370746995884 68.78428419862826H88.54214759945131v-587.6858542880658h213.12817823429353c58.0321369898491 0 99.42053925925924 20.473266603017827 123.87062743264744 61.56708949684499 14.434389403566527 24.302798485596707 21.651584105349794 52.28783916598079 21.651584105349794 83.95512204115225 0 37.11700132345678-8.837381267489713 67.4586770085048-26.51214380246913 91.17231674293552-9.1319606430727 12.519623462277092-22.388032544307265 24.00821911001372-39.620926015912204 34.46578694320987 25.33382630013717 11.488595647736624 44.18690633744856 24.450088173388203 56.706529799725644 38.73718788916324 22.09345316872428 25.62840567572016 33.14017975308642 60.97793074567902 33.14017975308642 106.04857520987652 0.1472896877914952 38.00073945020576-9.86840908203018 72.31923670562415-29.899806621673523 102.95549176625515z m173.9491212817558 40.65195383045268h-104.13380926858711V562.6676526002743h22.09345316872428v193.68593944581613h82.04035609986282v26.070274739094646z m133.73903651467762-31.814572562962965c-14.581679091358026 25.481115987928668-35.34952506995885 38.29531882578875-62.156248248010975 38.29531882578875-25.18653661234568 0-44.92335477640603-11.194016272153632-59.35774417997257-33.582048816460905-12.81420283786008-21.5042944175583-19.29494910068587-48.75288665898491-19.29494910068587-81.74577672427982 0-29.752516933882028 5.4497184482853225-55.23363292181069 16.49644503264746-76.2960582759945 14.139810027983536-27.10130255363511 34.90765600658436-40.65195383045268 62.59811731138545-40.65195383045268 28.868778807133054 0 50.225783536899854 12.519623462277092 64.07101418930041 37.411580699039774 10.899436896570645 19.442238788477365 16.20186565706447 44.33419602524006 16.20186565706447 74.67587171028806 0 32.84560037750343-6.1861668872427975 60.09419261893004-18.55850066172839 81.8930664120713z m179.84070879341562 31.814572562962965h-14.28709971577503l-5.302428760493828-28.279620055967072c-7.364484389574758 11.04672658436214-13.845230652400549 18.705790349519887-19.589528476268864 22.977191295473247-9.573829706447187 7.364484389574758-21.651584105349794 11.04672658436214-36.5278425722908 11.04672658436214-19.00036972510288 0-35.49681475775034-8.395512204115226-49.19475572235938-25.33382630013717-15.02354815473251-21.20971504197531-22.388032544307265-50.225783536899854-22.388032544307265-87.04820548477366s7.364484389574758-66.13306981838133 21.946163480932785-87.78465392373114c13.845230652400549-20.76784597860082 31.961862250754454-31.078124124005488 53.90802573168723-31.078124124005488 15.170837842524008 0 28.279620055967072 3.9768215703703707 39.32634664032922 11.93046471111111 16.054575969272975 11.488595647736624 25.77569536351166 31.51999318737997 29.457937558299033 60.24148230672154h-21.946163480932785c-2.651214380246914-16.054575969272975-8.100932828532235-27.690461304801097-16.20186565706447-35.05494569437586-8.24822251632373-7.364484389574758-18.55850066172839-11.04672658436214-31.078124124005488-11.04672658436214-14.876258466941014 0-27.24859224142661 7.659063765157751-37.411580699039774 22.829901607681748-10.16298845761317 15.318127530315502-15.170837842524008 38.00073945020576-15.170837842524008 68.19512544746226 0 26.070274739094646 4.124111258161865 47.42727946886146 12.519623462277092 63.776434813717415 8.395512204115226 16.349155344855966 21.946163480932785 24.59737786117969 40.94653320603565 24.59737786117969 14.434389403566527 0 26.51214380246913-5.744297823868312 35.938683821124826-17.232893471604935 9.426540018655693-11.488595647736624 14.28709971577503-30.194385997256514 14.581679091358026-55.82279167297667h-51.25681135144032v-24.74466754897119h71.73007795445817v117.83175023319613z m4.56598032153635-361.89076290370366c0 18.116631598353912-14.876258466941014 32.99289006529492-32.99289006529492 32.99289006529492H546.4657869432099c-18.116631598353912 0-32.99289006529492-14.876258466941014-32.99289006529492-32.99289006529492 0-18.116631598353912 14.876258466941014-32.99289006529492 32.99289006529492-32.99289006529492h353.64254038737994c18.116631598353912 0 32.99289006529492 14.876258466941014 32.99289006529492 32.99289006529492z m0-143.6074455967078c0 18.116631598353912-14.876258466941014 32.99289006529492-32.99289006529492 32.99289006529492H546.4657869432099c-18.116631598353912 0-32.99289006529492-14.876258466941014-32.99289006529492-32.99289006529492 0-18.116631598353912 14.876258466941014-32.99289006529492 32.99289006529492-32.99289006529492h353.64254038737994c18.116631598353912 0 32.99289006529492 14.876258466941014 32.99289006529492 32.99289006529492z" fill="#4a90e2" p-id="2669"></path></svg>