<svg class="icon" style="width: 1.1318359375em; height: 1em;vertical-align: middle;fill: currentColor;overflow: hidden;" viewBox="0 0 1159 1024" version="1.1" xmlns="http://www.w3.org/2000/svg" p-id="13528"><path d="M1112.78225 806.833589a313.14388 313.14388 0 0 1-117.846731 95.842235 25.230792 25.230792 0 0 0-13.909779 24.400069 276.785266 276.785266 0 0 1-0.425021 47.177331c-4.25021 36.319976-21.946539 46.771629-36.068827 49.167202a38.174613 38.174613 0 0 1-6.433272 0.560255c-15.455309 0-33.750531-9.022037-63.927022-30.910618a945.555806 945.555806 0 0 1-58.324473-46.559119 24.82509 24.82509 0 0 0-14.991649-5.950294 397.182123 397.182123 0 0 1-138.69208-31.683383 31.702703 31.702703 0 0 1-16.401947-41.284994 30.736746 30.736746 0 0 1 40.570187-16.691734 336.481397 336.481397 0 0 0 117.344433 26.814961 86.33722 86.33722 0 0 1 52.161668 20.826029 751.147338 751.147338 0 0 0 64.081575 50.229754c0-4.965018-0.23183-10.895993-0.65685-17.908839a87.940708 87.940708 0 0 1 49.20584-85.120114 251.361282 251.361282 0 0 0 94.663768-76.426504A170.684569 170.684569 0 0 0 1097.326941 668.508573a174.529077 174.529077 0 0 0-44.646524-113.982904 31.857256 31.857256 0 0 1 2.955828-44.434013 30.524235 30.524235 0 0 1 43.60329 2.994466A230.767083 230.767083 0 0 1 1112.78225 806.833589zM793.900586 415.215377a62.671278 62.671278 0 1 1-62.671278-63.154256 62.922427 62.922427 0 0 1 62.671278 63.154256z m-208.917139 0a62.671278 62.671278 0 1 1-62.671278-63.154256 62.922427 62.922427 0 0 1 62.671278 63.154256z m-40.280399 404.929097a56.605069 56.605069 0 0 0-34.194872 13.523395c-11.224418 9.659568-50.886605 43.583971-90.452196 72.195613-49.20584 35.663126-73.200207 45.226098-90.065813 45.226098a43.738525 43.738525 0 0 1-7.360591-0.521617c-23.569346-3.979742-37.710954-24.728494-42.019121-61.647364a418.027471 418.027471 0 0 1-0.579575-70.90123 57.455111 57.455111 0 0 0-32.031128-55.677751 474.883689 474.883689 0 0 1-178.605414-145.048075A350.526409 350.526409 0 0 1 0 410.482189c0-120.126389 65.182766-233.761549 178.798606-311.733583a30.446959 30.446959 0 0 1 30.910618-2.183062 31.741341 31.741341 0 0 1 3.709275 54.364049C117.035328 217.020358 61.821236 311.626169 61.821236 410.482189A287.19828 287.19828 0 0 0 119.102475 579.640546a412.521517 412.521517 0 0 0 155.383813 125.574386 120.242304 120.242304 0 0 1 67.269233 116.397796 345.290923 345.290923 0 0 0 0.347744 60.468897 918.818122 918.818122 0 0 0 128.39498-96.441128 118.136518 118.136518 0 0 1 71.191017-28.495726c236.582143-11.591482 421.929936-163.942191 421.929937-346.817135 0-191.587875-202.271357-347.493304-450.908641-347.493304a563.693758 563.693758 0 0 0-173.679035 26.83428 30.504916 30.504916 0 0 1-30.42764-6.549187 31.818617 31.818617 0 0 1-9.427739-30.176491 31.239043 31.239043 0 0 1 21.154455-23.182964A624.394485 624.394485 0 0 1 512.691239 0.066458 581.737832 581.737832 0 0 1 872.259003 117.623402a418.317258 418.317258 0 0 1 111.471417 130.249617 340.248628 340.248628 0 0 1 41.729334 162.60917c0 106.660951-50.616137 207.622758-142.517268 284.28109a572.735114 572.735114 0 0 1-338.258758 125.381195z m-168.636741-404.929097a62.671278 62.671278 0 1 1-62.671278-63.154256 62.922427 62.922427 0 0 1 62.651959 63.154256z" fill="#55CEBA" p-id="13529"></path></svg>