<svg class="icon" style="width: 1em; height: 1em;vertical-align: middle;fill: currentColor;overflow: hidden;" viewBox="0 0 1224 1224" version="1.1" xmlns="http://www.w3.org/2000/svg" p-id="8196"><path d="M392.216405 608.111701c6.817841 6.817841 15.340142 10.226761 23.862444 10.226761 8.522301 0 15.340142-3.40892 22.157983-8.522301L1012.639934 55.866582c11.931222-11.931222 13.635682-32.384745 1.70446-46.020427-11.931222-11.931222-32.384745-13.635682-46.020427-1.70446L393.920865 562.091274c-13.635682 11.931222-13.635682 32.384745-1.70446 46.020427z m598.265545-172.150485c-17.044602 0-32.384745 13.635682-32.384744 32.384745v412.479379c0 44.315966-35.793665 80.109631-80.109632 80.109631H143.36521c-44.315966 0-80.109631-35.793665-80.109632-80.109631V144.498515c0-44.315966 35.793665-80.109631 80.109632-80.109632H511.528622c17.044602 0 32.384745-13.635682 32.384745-32.384744C543.913367 14.959536 528.573225 1.323854 511.528622 1.323854H143.36521C64.960039 1.323854 0.190549 66.093344 0.190549 144.498515v734.622364C0.190549 959.230511 64.960039 1024 143.36521 1024h734.622364c80.109631 0 143.17466-64.769489 143.174661-143.17466V468.345961c1.70446-17.044602-11.931222-32.384745-30.680285-32.384745z" fill="#55CEBA" p-id="8197"></path></svg>