<svg class="icon" style="width: 1em; height: 1em;vertical-align: middle;fill: currentColor;overflow: hidden;" viewBox="0 0 1024 1024" version="1.1" xmlns="http://www.w3.org/2000/svg" p-id="3581"><path d="M1011.2 972.8c-38.4-179.2-174.933333-324.266667-345.6-375.466667 98.133333-55.466667 162.133333-157.866667 162.133333-273.066666 0-174.933333-145.066667-315.733333-320-315.733334S187.733333 149.333333 187.733333 324.266667c0 119.466667 68.266667 221.866667 162.133334 273.066666-170.666667 55.466667-307.2 196.266667-345.6 375.466667-4.266667 17.066667 8.533333 34.133333 25.6 38.4 17.066667 4.266667 34.133333-8.533333 38.4-25.6C115.2 785.066667 298.666667 640 512 640s396.8 145.066667 439.466667 349.866667c4.266667 17.066667 17.066667 25.6 29.866666 25.6h8.533334c17.066667-4.266667 25.6-21.333333 21.333333-42.666667zM256 324.266667c0-136.533333 115.2-251.733333 256-251.733334s256 110.933333 256 251.733334-115.2 251.733333-256 251.733333-256-115.2-256-251.733333z" fill="#888888" p-id="3582"></path></svg>