<svg class="icon" style="width: 1em; height: 1em;vertical-align: middle;fill: currentColor;overflow: hidden;" viewBox="0 0 1024 1024" version="1.1" xmlns="http://www.w3.org/2000/svg" p-id="30195"><path d="M943.852394 1023.39053c0-184.100411-114.600613-341.007685-276.009453-403.926547 102.568053-55.77551 172.22246-164.67354 172.22246-289.897313C840.067641 147.55235 692.920858 0 511.410696 0 329.896053 0 182.75151 147.55235 182.75151 329.56667c0 125.223772 69.654407 234.121803 172.22246 289.897313C193.562888 682.380604 78.964516 839.287877 78.964516 1023.39053l64.877234 0c-0.230792-5.341829-0.811133-10.594031-0.811133-15.991877 0-203.119475 164.92898-367.781812 368.380079-367.781812 203.446617 0 368.377838 164.660096 368.377838 367.781812 0 5.397847-0.578101 10.650048-0.808893 15.991877L943.852394 1023.39053zM251.942092 329.56667c0-143.696105 116.169103-260.185628 259.468604-260.185628 143.299501 0 259.464123 116.489523 259.464123 260.185628s-116.166862 260.181147-259.464123 260.181147C368.111195 589.747816 251.942092 473.262775 251.942092 329.56667z" fill="#55CEBA" p-id="30196"></path></svg>